<mxfile host="app.diagrams.net" modified="2023-01-31T18:30:27.747Z" agent="5.0 (Windows NT 10.0; Win64; x64) AppleWebKit/537.36 (KHTML, like Gecko) Chrome/109.0.0.0 Safari/537.36 Edg/109.0.1518.70" etag="STfzbXcK1vYXZ2M9gV3N" version="20.8.14" type="github">
  <diagram name="Page-1" id="V4JrnGYH-4ql7bzIMDvy">
    <mxGraphModel dx="1593" dy="849" grid="1" gridSize="10" guides="1" tooltips="1" connect="1" arrows="1" fold="1" page="1" pageScale="1" pageWidth="850" pageHeight="1100" math="0" shadow="0">
      <root>
        <mxCell id="0" />
        <mxCell id="1" parent="0" />
        <mxCell id="abryTrooZKwMuos93xIQ-1" value="" style="whiteSpace=wrap;html=1;aspect=fixed;" vertex="1" parent="1">
          <mxGeometry x="240" y="40" width="400" height="400" as="geometry" />
        </mxCell>
        <mxCell id="abryTrooZKwMuos93xIQ-24" value="" style="ellipse;whiteSpace=wrap;html=1;aspect=fixed;" vertex="1" parent="1">
          <mxGeometry x="610" y="50" width="20" height="20" as="geometry" />
        </mxCell>
        <mxCell id="abryTrooZKwMuos93xIQ-394" value="" style="ellipse;whiteSpace=wrap;html=1;aspect=fixed;" vertex="1" parent="1">
          <mxGeometry x="570" y="50" width="20" height="20" as="geometry" />
        </mxCell>
        <mxCell id="abryTrooZKwMuos93xIQ-395" value="" style="ellipse;whiteSpace=wrap;html=1;aspect=fixed;" vertex="1" parent="1">
          <mxGeometry x="530" y="50" width="20" height="20" as="geometry" />
        </mxCell>
        <mxCell id="abryTrooZKwMuos93xIQ-396" value="" style="ellipse;whiteSpace=wrap;html=1;aspect=fixed;" vertex="1" parent="1">
          <mxGeometry x="490" y="50" width="20" height="20" as="geometry" />
        </mxCell>
        <mxCell id="abryTrooZKwMuos93xIQ-397" value="" style="ellipse;whiteSpace=wrap;html=1;aspect=fixed;" vertex="1" parent="1">
          <mxGeometry x="450" y="50" width="20" height="20" as="geometry" />
        </mxCell>
        <mxCell id="abryTrooZKwMuos93xIQ-398" value="" style="ellipse;whiteSpace=wrap;html=1;aspect=fixed;" vertex="1" parent="1">
          <mxGeometry x="410" y="50" width="20" height="20" as="geometry" />
        </mxCell>
        <mxCell id="abryTrooZKwMuos93xIQ-399" value="" style="ellipse;whiteSpace=wrap;html=1;aspect=fixed;" vertex="1" parent="1">
          <mxGeometry x="370" y="50" width="20" height="20" as="geometry" />
        </mxCell>
        <mxCell id="abryTrooZKwMuos93xIQ-400" value="" style="ellipse;whiteSpace=wrap;html=1;aspect=fixed;" vertex="1" parent="1">
          <mxGeometry x="330" y="50" width="20" height="20" as="geometry" />
        </mxCell>
        <mxCell id="abryTrooZKwMuos93xIQ-401" value="" style="ellipse;whiteSpace=wrap;html=1;aspect=fixed;" vertex="1" parent="1">
          <mxGeometry x="290" y="50" width="20" height="20" as="geometry" />
        </mxCell>
        <mxCell id="abryTrooZKwMuos93xIQ-402" value="" style="ellipse;whiteSpace=wrap;html=1;aspect=fixed;" vertex="1" parent="1">
          <mxGeometry x="250" y="50" width="20" height="20" as="geometry" />
        </mxCell>
        <mxCell id="abryTrooZKwMuos93xIQ-403" value="" style="ellipse;whiteSpace=wrap;html=1;aspect=fixed;" vertex="1" parent="1">
          <mxGeometry x="250" y="50" width="20" height="20" as="geometry" />
        </mxCell>
        <mxCell id="abryTrooZKwMuos93xIQ-404" value="" style="ellipse;whiteSpace=wrap;html=1;aspect=fixed;" vertex="1" parent="1">
          <mxGeometry x="290" y="50" width="20" height="20" as="geometry" />
        </mxCell>
        <mxCell id="abryTrooZKwMuos93xIQ-405" value="" style="ellipse;whiteSpace=wrap;html=1;aspect=fixed;" vertex="1" parent="1">
          <mxGeometry x="370" y="50" width="20" height="20" as="geometry" />
        </mxCell>
        <mxCell id="abryTrooZKwMuos93xIQ-406" value="" style="ellipse;whiteSpace=wrap;html=1;aspect=fixed;" vertex="1" parent="1">
          <mxGeometry x="330" y="50" width="20" height="20" as="geometry" />
        </mxCell>
        <mxCell id="abryTrooZKwMuos93xIQ-407" value="" style="ellipse;whiteSpace=wrap;html=1;aspect=fixed;" vertex="1" parent="1">
          <mxGeometry x="250" y="50" width="20" height="20" as="geometry" />
        </mxCell>
        <mxCell id="abryTrooZKwMuos93xIQ-408" value="" style="ellipse;whiteSpace=wrap;html=1;aspect=fixed;" vertex="1" parent="1">
          <mxGeometry x="290" y="50" width="20" height="20" as="geometry" />
        </mxCell>
        <mxCell id="abryTrooZKwMuos93xIQ-409" value="" style="ellipse;whiteSpace=wrap;html=1;aspect=fixed;" vertex="1" parent="1">
          <mxGeometry x="370" y="50" width="20" height="20" as="geometry" />
        </mxCell>
        <mxCell id="abryTrooZKwMuos93xIQ-410" value="" style="ellipse;whiteSpace=wrap;html=1;aspect=fixed;" vertex="1" parent="1">
          <mxGeometry x="330" y="50" width="20" height="20" as="geometry" />
        </mxCell>
        <mxCell id="abryTrooZKwMuos93xIQ-411" value="" style="ellipse;whiteSpace=wrap;html=1;aspect=fixed;" vertex="1" parent="1">
          <mxGeometry x="410" y="50" width="20" height="20" as="geometry" />
        </mxCell>
        <mxCell id="abryTrooZKwMuos93xIQ-412" value="" style="ellipse;whiteSpace=wrap;html=1;aspect=fixed;" vertex="1" parent="1">
          <mxGeometry x="450" y="50" width="20" height="20" as="geometry" />
        </mxCell>
        <mxCell id="abryTrooZKwMuos93xIQ-413" value="" style="ellipse;whiteSpace=wrap;html=1;aspect=fixed;" vertex="1" parent="1">
          <mxGeometry x="490" y="50" width="20" height="20" as="geometry" />
        </mxCell>
        <mxCell id="abryTrooZKwMuos93xIQ-414" value="" style="ellipse;whiteSpace=wrap;html=1;aspect=fixed;" vertex="1" parent="1">
          <mxGeometry x="530" y="50" width="20" height="20" as="geometry" />
        </mxCell>
        <mxCell id="abryTrooZKwMuos93xIQ-415" value="" style="ellipse;whiteSpace=wrap;html=1;aspect=fixed;" vertex="1" parent="1">
          <mxGeometry x="610" y="90" width="20" height="20" as="geometry" />
        </mxCell>
        <mxCell id="abryTrooZKwMuos93xIQ-416" value="" style="ellipse;whiteSpace=wrap;html=1;aspect=fixed;" vertex="1" parent="1">
          <mxGeometry x="570" y="90" width="20" height="20" as="geometry" />
        </mxCell>
        <mxCell id="abryTrooZKwMuos93xIQ-417" value="" style="ellipse;whiteSpace=wrap;html=1;aspect=fixed;" vertex="1" parent="1">
          <mxGeometry x="250" y="90" width="20" height="20" as="geometry" />
        </mxCell>
        <mxCell id="abryTrooZKwMuos93xIQ-418" value="" style="ellipse;whiteSpace=wrap;html=1;aspect=fixed;" vertex="1" parent="1">
          <mxGeometry x="290" y="90" width="20" height="20" as="geometry" />
        </mxCell>
        <mxCell id="abryTrooZKwMuos93xIQ-419" value="" style="ellipse;whiteSpace=wrap;html=1;aspect=fixed;" vertex="1" parent="1">
          <mxGeometry x="370" y="90" width="20" height="20" as="geometry" />
        </mxCell>
        <mxCell id="abryTrooZKwMuos93xIQ-420" value="" style="ellipse;whiteSpace=wrap;html=1;aspect=fixed;" vertex="1" parent="1">
          <mxGeometry x="330" y="90" width="20" height="20" as="geometry" />
        </mxCell>
        <mxCell id="abryTrooZKwMuos93xIQ-421" value="" style="ellipse;whiteSpace=wrap;html=1;aspect=fixed;" vertex="1" parent="1">
          <mxGeometry x="410" y="90" width="20" height="20" as="geometry" />
        </mxCell>
        <mxCell id="abryTrooZKwMuos93xIQ-422" value="" style="ellipse;whiteSpace=wrap;html=1;aspect=fixed;" vertex="1" parent="1">
          <mxGeometry x="450" y="90" width="20" height="20" as="geometry" />
        </mxCell>
        <mxCell id="abryTrooZKwMuos93xIQ-423" value="" style="ellipse;whiteSpace=wrap;html=1;aspect=fixed;" vertex="1" parent="1">
          <mxGeometry x="490" y="90" width="20" height="20" as="geometry" />
        </mxCell>
        <mxCell id="abryTrooZKwMuos93xIQ-424" value="" style="ellipse;whiteSpace=wrap;html=1;aspect=fixed;" vertex="1" parent="1">
          <mxGeometry x="530" y="90" width="20" height="20" as="geometry" />
        </mxCell>
        <mxCell id="abryTrooZKwMuos93xIQ-425" value="" style="ellipse;whiteSpace=wrap;html=1;aspect=fixed;" vertex="1" parent="1">
          <mxGeometry x="610" y="130" width="20" height="20" as="geometry" />
        </mxCell>
        <mxCell id="abryTrooZKwMuos93xIQ-426" value="" style="ellipse;whiteSpace=wrap;html=1;aspect=fixed;" vertex="1" parent="1">
          <mxGeometry x="570" y="130" width="20" height="20" as="geometry" />
        </mxCell>
        <mxCell id="abryTrooZKwMuos93xIQ-427" value="" style="ellipse;whiteSpace=wrap;html=1;aspect=fixed;" vertex="1" parent="1">
          <mxGeometry x="250" y="130" width="20" height="20" as="geometry" />
        </mxCell>
        <mxCell id="abryTrooZKwMuos93xIQ-428" value="" style="ellipse;whiteSpace=wrap;html=1;aspect=fixed;" vertex="1" parent="1">
          <mxGeometry x="290" y="130" width="20" height="20" as="geometry" />
        </mxCell>
        <mxCell id="abryTrooZKwMuos93xIQ-429" value="" style="ellipse;whiteSpace=wrap;html=1;aspect=fixed;" vertex="1" parent="1">
          <mxGeometry x="370" y="130" width="20" height="20" as="geometry" />
        </mxCell>
        <mxCell id="abryTrooZKwMuos93xIQ-430" value="" style="ellipse;whiteSpace=wrap;html=1;aspect=fixed;" vertex="1" parent="1">
          <mxGeometry x="330" y="130" width="20" height="20" as="geometry" />
        </mxCell>
        <mxCell id="abryTrooZKwMuos93xIQ-431" value="" style="ellipse;whiteSpace=wrap;html=1;aspect=fixed;" vertex="1" parent="1">
          <mxGeometry x="410" y="130" width="20" height="20" as="geometry" />
        </mxCell>
        <mxCell id="abryTrooZKwMuos93xIQ-432" value="" style="ellipse;whiteSpace=wrap;html=1;aspect=fixed;" vertex="1" parent="1">
          <mxGeometry x="450" y="130" width="20" height="20" as="geometry" />
        </mxCell>
        <mxCell id="abryTrooZKwMuos93xIQ-433" value="" style="ellipse;whiteSpace=wrap;html=1;aspect=fixed;" vertex="1" parent="1">
          <mxGeometry x="490" y="130" width="20" height="20" as="geometry" />
        </mxCell>
        <mxCell id="abryTrooZKwMuos93xIQ-434" value="" style="ellipse;whiteSpace=wrap;html=1;aspect=fixed;" vertex="1" parent="1">
          <mxGeometry x="530" y="130" width="20" height="20" as="geometry" />
        </mxCell>
        <mxCell id="abryTrooZKwMuos93xIQ-435" value="" style="ellipse;whiteSpace=wrap;html=1;aspect=fixed;" vertex="1" parent="1">
          <mxGeometry x="610" y="170" width="20" height="20" as="geometry" />
        </mxCell>
        <mxCell id="abryTrooZKwMuos93xIQ-436" value="" style="ellipse;whiteSpace=wrap;html=1;aspect=fixed;" vertex="1" parent="1">
          <mxGeometry x="570" y="170" width="20" height="20" as="geometry" />
        </mxCell>
        <mxCell id="abryTrooZKwMuos93xIQ-437" value="" style="ellipse;whiteSpace=wrap;html=1;aspect=fixed;" vertex="1" parent="1">
          <mxGeometry x="250" y="170" width="20" height="20" as="geometry" />
        </mxCell>
        <mxCell id="abryTrooZKwMuos93xIQ-438" value="" style="ellipse;whiteSpace=wrap;html=1;aspect=fixed;" vertex="1" parent="1">
          <mxGeometry x="290" y="170" width="20" height="20" as="geometry" />
        </mxCell>
        <mxCell id="abryTrooZKwMuos93xIQ-439" value="" style="ellipse;whiteSpace=wrap;html=1;aspect=fixed;" vertex="1" parent="1">
          <mxGeometry x="370" y="170" width="20" height="20" as="geometry" />
        </mxCell>
        <mxCell id="abryTrooZKwMuos93xIQ-440" value="" style="ellipse;whiteSpace=wrap;html=1;aspect=fixed;" vertex="1" parent="1">
          <mxGeometry x="330" y="170" width="20" height="20" as="geometry" />
        </mxCell>
        <mxCell id="abryTrooZKwMuos93xIQ-441" value="" style="ellipse;whiteSpace=wrap;html=1;aspect=fixed;" vertex="1" parent="1">
          <mxGeometry x="410" y="170" width="20" height="20" as="geometry" />
        </mxCell>
        <mxCell id="abryTrooZKwMuos93xIQ-442" value="" style="ellipse;whiteSpace=wrap;html=1;aspect=fixed;" vertex="1" parent="1">
          <mxGeometry x="450" y="170" width="20" height="20" as="geometry" />
        </mxCell>
        <mxCell id="abryTrooZKwMuos93xIQ-443" value="" style="ellipse;whiteSpace=wrap;html=1;aspect=fixed;" vertex="1" parent="1">
          <mxGeometry x="490" y="170" width="20" height="20" as="geometry" />
        </mxCell>
        <mxCell id="abryTrooZKwMuos93xIQ-444" value="" style="ellipse;whiteSpace=wrap;html=1;aspect=fixed;" vertex="1" parent="1">
          <mxGeometry x="530" y="170" width="20" height="20" as="geometry" />
        </mxCell>
        <mxCell id="abryTrooZKwMuos93xIQ-445" value="" style="ellipse;whiteSpace=wrap;html=1;aspect=fixed;" vertex="1" parent="1">
          <mxGeometry x="610" y="210" width="20" height="20" as="geometry" />
        </mxCell>
        <mxCell id="abryTrooZKwMuos93xIQ-446" value="" style="ellipse;whiteSpace=wrap;html=1;aspect=fixed;" vertex="1" parent="1">
          <mxGeometry x="570" y="210" width="20" height="20" as="geometry" />
        </mxCell>
        <mxCell id="abryTrooZKwMuos93xIQ-447" value="" style="ellipse;whiteSpace=wrap;html=1;aspect=fixed;" vertex="1" parent="1">
          <mxGeometry x="250" y="210" width="20" height="20" as="geometry" />
        </mxCell>
        <mxCell id="abryTrooZKwMuos93xIQ-448" value="" style="ellipse;whiteSpace=wrap;html=1;aspect=fixed;" vertex="1" parent="1">
          <mxGeometry x="290" y="210" width="20" height="20" as="geometry" />
        </mxCell>
        <mxCell id="abryTrooZKwMuos93xIQ-449" value="" style="ellipse;whiteSpace=wrap;html=1;aspect=fixed;" vertex="1" parent="1">
          <mxGeometry x="370" y="210" width="20" height="20" as="geometry" />
        </mxCell>
        <mxCell id="abryTrooZKwMuos93xIQ-450" value="" style="ellipse;whiteSpace=wrap;html=1;aspect=fixed;" vertex="1" parent="1">
          <mxGeometry x="330" y="210" width="20" height="20" as="geometry" />
        </mxCell>
        <mxCell id="abryTrooZKwMuos93xIQ-451" value="" style="ellipse;whiteSpace=wrap;html=1;aspect=fixed;" vertex="1" parent="1">
          <mxGeometry x="410" y="210" width="20" height="20" as="geometry" />
        </mxCell>
        <mxCell id="abryTrooZKwMuos93xIQ-452" value="" style="ellipse;whiteSpace=wrap;html=1;aspect=fixed;" vertex="1" parent="1">
          <mxGeometry x="450" y="210" width="20" height="20" as="geometry" />
        </mxCell>
        <mxCell id="abryTrooZKwMuos93xIQ-453" value="" style="ellipse;whiteSpace=wrap;html=1;aspect=fixed;" vertex="1" parent="1">
          <mxGeometry x="490" y="210" width="20" height="20" as="geometry" />
        </mxCell>
        <mxCell id="abryTrooZKwMuos93xIQ-454" value="" style="ellipse;whiteSpace=wrap;html=1;aspect=fixed;" vertex="1" parent="1">
          <mxGeometry x="530" y="210" width="20" height="20" as="geometry" />
        </mxCell>
        <mxCell id="abryTrooZKwMuos93xIQ-455" value="" style="ellipse;whiteSpace=wrap;html=1;aspect=fixed;" vertex="1" parent="1">
          <mxGeometry x="610" y="250" width="20" height="20" as="geometry" />
        </mxCell>
        <mxCell id="abryTrooZKwMuos93xIQ-456" value="" style="ellipse;whiteSpace=wrap;html=1;aspect=fixed;" vertex="1" parent="1">
          <mxGeometry x="570" y="250" width="20" height="20" as="geometry" />
        </mxCell>
        <mxCell id="abryTrooZKwMuos93xIQ-457" value="" style="ellipse;whiteSpace=wrap;html=1;aspect=fixed;" vertex="1" parent="1">
          <mxGeometry x="250" y="250" width="20" height="20" as="geometry" />
        </mxCell>
        <mxCell id="abryTrooZKwMuos93xIQ-458" value="" style="ellipse;whiteSpace=wrap;html=1;aspect=fixed;" vertex="1" parent="1">
          <mxGeometry x="290" y="250" width="20" height="20" as="geometry" />
        </mxCell>
        <mxCell id="abryTrooZKwMuos93xIQ-459" value="" style="ellipse;whiteSpace=wrap;html=1;aspect=fixed;" vertex="1" parent="1">
          <mxGeometry x="370" y="250" width="20" height="20" as="geometry" />
        </mxCell>
        <mxCell id="abryTrooZKwMuos93xIQ-460" value="" style="ellipse;whiteSpace=wrap;html=1;aspect=fixed;" vertex="1" parent="1">
          <mxGeometry x="330" y="250" width="20" height="20" as="geometry" />
        </mxCell>
        <mxCell id="abryTrooZKwMuos93xIQ-461" value="" style="ellipse;whiteSpace=wrap;html=1;aspect=fixed;" vertex="1" parent="1">
          <mxGeometry x="410" y="250" width="20" height="20" as="geometry" />
        </mxCell>
        <mxCell id="abryTrooZKwMuos93xIQ-462" value="" style="ellipse;whiteSpace=wrap;html=1;aspect=fixed;" vertex="1" parent="1">
          <mxGeometry x="450" y="250" width="20" height="20" as="geometry" />
        </mxCell>
        <mxCell id="abryTrooZKwMuos93xIQ-463" value="" style="ellipse;whiteSpace=wrap;html=1;aspect=fixed;" vertex="1" parent="1">
          <mxGeometry x="490" y="250" width="20" height="20" as="geometry" />
        </mxCell>
        <mxCell id="abryTrooZKwMuos93xIQ-464" value="" style="ellipse;whiteSpace=wrap;html=1;aspect=fixed;" vertex="1" parent="1">
          <mxGeometry x="530" y="250" width="20" height="20" as="geometry" />
        </mxCell>
        <mxCell id="abryTrooZKwMuos93xIQ-465" value="" style="ellipse;whiteSpace=wrap;html=1;aspect=fixed;" vertex="1" parent="1">
          <mxGeometry x="610" y="290" width="20" height="20" as="geometry" />
        </mxCell>
        <mxCell id="abryTrooZKwMuos93xIQ-466" value="" style="ellipse;whiteSpace=wrap;html=1;aspect=fixed;" vertex="1" parent="1">
          <mxGeometry x="570" y="290" width="20" height="20" as="geometry" />
        </mxCell>
        <mxCell id="abryTrooZKwMuos93xIQ-467" value="" style="ellipse;whiteSpace=wrap;html=1;aspect=fixed;" vertex="1" parent="1">
          <mxGeometry x="250" y="290" width="20" height="20" as="geometry" />
        </mxCell>
        <mxCell id="abryTrooZKwMuos93xIQ-468" value="" style="ellipse;whiteSpace=wrap;html=1;aspect=fixed;" vertex="1" parent="1">
          <mxGeometry x="290" y="290" width="20" height="20" as="geometry" />
        </mxCell>
        <mxCell id="abryTrooZKwMuos93xIQ-469" value="" style="ellipse;whiteSpace=wrap;html=1;aspect=fixed;" vertex="1" parent="1">
          <mxGeometry x="370" y="290" width="20" height="20" as="geometry" />
        </mxCell>
        <mxCell id="abryTrooZKwMuos93xIQ-470" value="" style="ellipse;whiteSpace=wrap;html=1;aspect=fixed;" vertex="1" parent="1">
          <mxGeometry x="330" y="290" width="20" height="20" as="geometry" />
        </mxCell>
        <mxCell id="abryTrooZKwMuos93xIQ-471" value="" style="ellipse;whiteSpace=wrap;html=1;aspect=fixed;" vertex="1" parent="1">
          <mxGeometry x="410" y="290" width="20" height="20" as="geometry" />
        </mxCell>
        <mxCell id="abryTrooZKwMuos93xIQ-472" value="" style="ellipse;whiteSpace=wrap;html=1;aspect=fixed;" vertex="1" parent="1">
          <mxGeometry x="450" y="290" width="20" height="20" as="geometry" />
        </mxCell>
        <mxCell id="abryTrooZKwMuos93xIQ-473" value="" style="ellipse;whiteSpace=wrap;html=1;aspect=fixed;" vertex="1" parent="1">
          <mxGeometry x="490" y="290" width="20" height="20" as="geometry" />
        </mxCell>
        <mxCell id="abryTrooZKwMuos93xIQ-474" value="" style="ellipse;whiteSpace=wrap;html=1;aspect=fixed;" vertex="1" parent="1">
          <mxGeometry x="530" y="290" width="20" height="20" as="geometry" />
        </mxCell>
        <mxCell id="abryTrooZKwMuos93xIQ-475" value="" style="ellipse;whiteSpace=wrap;html=1;aspect=fixed;" vertex="1" parent="1">
          <mxGeometry x="610" y="330" width="20" height="20" as="geometry" />
        </mxCell>
        <mxCell id="abryTrooZKwMuos93xIQ-476" value="" style="ellipse;whiteSpace=wrap;html=1;aspect=fixed;" vertex="1" parent="1">
          <mxGeometry x="570" y="330" width="20" height="20" as="geometry" />
        </mxCell>
        <mxCell id="abryTrooZKwMuos93xIQ-477" value="" style="ellipse;whiteSpace=wrap;html=1;aspect=fixed;" vertex="1" parent="1">
          <mxGeometry x="250" y="330" width="20" height="20" as="geometry" />
        </mxCell>
        <mxCell id="abryTrooZKwMuos93xIQ-478" value="" style="ellipse;whiteSpace=wrap;html=1;aspect=fixed;" vertex="1" parent="1">
          <mxGeometry x="290" y="330" width="20" height="20" as="geometry" />
        </mxCell>
        <mxCell id="abryTrooZKwMuos93xIQ-479" value="" style="ellipse;whiteSpace=wrap;html=1;aspect=fixed;" vertex="1" parent="1">
          <mxGeometry x="370" y="330" width="20" height="20" as="geometry" />
        </mxCell>
        <mxCell id="abryTrooZKwMuos93xIQ-480" value="" style="ellipse;whiteSpace=wrap;html=1;aspect=fixed;" vertex="1" parent="1">
          <mxGeometry x="330" y="330" width="20" height="20" as="geometry" />
        </mxCell>
        <mxCell id="abryTrooZKwMuos93xIQ-481" value="" style="ellipse;whiteSpace=wrap;html=1;aspect=fixed;" vertex="1" parent="1">
          <mxGeometry x="410" y="330" width="20" height="20" as="geometry" />
        </mxCell>
        <mxCell id="abryTrooZKwMuos93xIQ-482" value="" style="ellipse;whiteSpace=wrap;html=1;aspect=fixed;" vertex="1" parent="1">
          <mxGeometry x="450" y="330" width="20" height="20" as="geometry" />
        </mxCell>
        <mxCell id="abryTrooZKwMuos93xIQ-483" value="" style="ellipse;whiteSpace=wrap;html=1;aspect=fixed;" vertex="1" parent="1">
          <mxGeometry x="490" y="330" width="20" height="20" as="geometry" />
        </mxCell>
        <mxCell id="abryTrooZKwMuos93xIQ-484" value="" style="ellipse;whiteSpace=wrap;html=1;aspect=fixed;" vertex="1" parent="1">
          <mxGeometry x="530" y="330" width="20" height="20" as="geometry" />
        </mxCell>
        <mxCell id="abryTrooZKwMuos93xIQ-485" value="" style="ellipse;whiteSpace=wrap;html=1;aspect=fixed;" vertex="1" parent="1">
          <mxGeometry x="610" y="370" width="20" height="20" as="geometry" />
        </mxCell>
        <mxCell id="abryTrooZKwMuos93xIQ-486" value="" style="ellipse;whiteSpace=wrap;html=1;aspect=fixed;" vertex="1" parent="1">
          <mxGeometry x="570" y="370" width="20" height="20" as="geometry" />
        </mxCell>
        <mxCell id="abryTrooZKwMuos93xIQ-487" value="" style="ellipse;whiteSpace=wrap;html=1;aspect=fixed;" vertex="1" parent="1">
          <mxGeometry x="250" y="370" width="20" height="20" as="geometry" />
        </mxCell>
        <mxCell id="abryTrooZKwMuos93xIQ-488" value="" style="ellipse;whiteSpace=wrap;html=1;aspect=fixed;" vertex="1" parent="1">
          <mxGeometry x="290" y="370" width="20" height="20" as="geometry" />
        </mxCell>
        <mxCell id="abryTrooZKwMuos93xIQ-489" value="" style="ellipse;whiteSpace=wrap;html=1;aspect=fixed;" vertex="1" parent="1">
          <mxGeometry x="370" y="370" width="20" height="20" as="geometry" />
        </mxCell>
        <mxCell id="abryTrooZKwMuos93xIQ-490" value="" style="ellipse;whiteSpace=wrap;html=1;aspect=fixed;" vertex="1" parent="1">
          <mxGeometry x="330" y="370" width="20" height="20" as="geometry" />
        </mxCell>
        <mxCell id="abryTrooZKwMuos93xIQ-491" value="" style="ellipse;whiteSpace=wrap;html=1;aspect=fixed;" vertex="1" parent="1">
          <mxGeometry x="410" y="370" width="20" height="20" as="geometry" />
        </mxCell>
        <mxCell id="abryTrooZKwMuos93xIQ-492" value="" style="ellipse;whiteSpace=wrap;html=1;aspect=fixed;" vertex="1" parent="1">
          <mxGeometry x="450" y="370" width="20" height="20" as="geometry" />
        </mxCell>
        <mxCell id="abryTrooZKwMuos93xIQ-493" value="" style="ellipse;whiteSpace=wrap;html=1;aspect=fixed;" vertex="1" parent="1">
          <mxGeometry x="490" y="370" width="20" height="20" as="geometry" />
        </mxCell>
        <mxCell id="abryTrooZKwMuos93xIQ-494" value="" style="ellipse;whiteSpace=wrap;html=1;aspect=fixed;" vertex="1" parent="1">
          <mxGeometry x="530" y="370" width="20" height="20" as="geometry" />
        </mxCell>
        <mxCell id="abryTrooZKwMuos93xIQ-495" value="" style="ellipse;whiteSpace=wrap;html=1;aspect=fixed;" vertex="1" parent="1">
          <mxGeometry x="610" y="410" width="20" height="20" as="geometry" />
        </mxCell>
        <mxCell id="abryTrooZKwMuos93xIQ-496" value="" style="ellipse;whiteSpace=wrap;html=1;aspect=fixed;" vertex="1" parent="1">
          <mxGeometry x="570" y="410" width="20" height="20" as="geometry" />
        </mxCell>
        <mxCell id="abryTrooZKwMuos93xIQ-497" value="" style="ellipse;whiteSpace=wrap;html=1;aspect=fixed;" vertex="1" parent="1">
          <mxGeometry x="250" y="410" width="20" height="20" as="geometry" />
        </mxCell>
        <mxCell id="abryTrooZKwMuos93xIQ-498" value="" style="ellipse;whiteSpace=wrap;html=1;aspect=fixed;" vertex="1" parent="1">
          <mxGeometry x="290" y="410" width="20" height="20" as="geometry" />
        </mxCell>
        <mxCell id="abryTrooZKwMuos93xIQ-499" value="" style="ellipse;whiteSpace=wrap;html=1;aspect=fixed;" vertex="1" parent="1">
          <mxGeometry x="370" y="410" width="20" height="20" as="geometry" />
        </mxCell>
        <mxCell id="abryTrooZKwMuos93xIQ-500" value="" style="ellipse;whiteSpace=wrap;html=1;aspect=fixed;" vertex="1" parent="1">
          <mxGeometry x="330" y="410" width="20" height="20" as="geometry" />
        </mxCell>
        <mxCell id="abryTrooZKwMuos93xIQ-501" value="" style="ellipse;whiteSpace=wrap;html=1;aspect=fixed;" vertex="1" parent="1">
          <mxGeometry x="410" y="410" width="20" height="20" as="geometry" />
        </mxCell>
        <mxCell id="abryTrooZKwMuos93xIQ-502" value="" style="ellipse;whiteSpace=wrap;html=1;aspect=fixed;" vertex="1" parent="1">
          <mxGeometry x="450" y="410" width="20" height="20" as="geometry" />
        </mxCell>
        <mxCell id="abryTrooZKwMuos93xIQ-503" value="" style="ellipse;whiteSpace=wrap;html=1;aspect=fixed;" vertex="1" parent="1">
          <mxGeometry x="490" y="410" width="20" height="20" as="geometry" />
        </mxCell>
        <mxCell id="abryTrooZKwMuos93xIQ-504" value="" style="ellipse;whiteSpace=wrap;html=1;aspect=fixed;" vertex="1" parent="1">
          <mxGeometry x="530" y="410" width="20" height="20" as="geometry" />
        </mxCell>
        <mxCell id="abryTrooZKwMuos93xIQ-505" value="" style="whiteSpace=wrap;html=1;aspect=fixed;" vertex="1" parent="1">
          <mxGeometry x="240" y="480" width="400" height="400" as="geometry" />
        </mxCell>
        <mxCell id="abryTrooZKwMuos93xIQ-506" value="" style="ellipse;whiteSpace=wrap;html=1;aspect=fixed;" vertex="1" parent="1">
          <mxGeometry x="610" y="490" width="20" height="20" as="geometry" />
        </mxCell>
        <mxCell id="abryTrooZKwMuos93xIQ-507" value="" style="ellipse;whiteSpace=wrap;html=1;aspect=fixed;" vertex="1" parent="1">
          <mxGeometry x="570" y="490" width="20" height="20" as="geometry" />
        </mxCell>
        <mxCell id="abryTrooZKwMuos93xIQ-508" value="" style="ellipse;whiteSpace=wrap;html=1;aspect=fixed;" vertex="1" parent="1">
          <mxGeometry x="530" y="490" width="20" height="20" as="geometry" />
        </mxCell>
        <mxCell id="abryTrooZKwMuos93xIQ-509" value="" style="ellipse;whiteSpace=wrap;html=1;aspect=fixed;" vertex="1" parent="1">
          <mxGeometry x="490" y="490" width="20" height="20" as="geometry" />
        </mxCell>
        <mxCell id="abryTrooZKwMuos93xIQ-510" value="" style="ellipse;whiteSpace=wrap;html=1;aspect=fixed;" vertex="1" parent="1">
          <mxGeometry x="450" y="490" width="20" height="20" as="geometry" />
        </mxCell>
        <mxCell id="abryTrooZKwMuos93xIQ-511" value="" style="ellipse;whiteSpace=wrap;html=1;aspect=fixed;" vertex="1" parent="1">
          <mxGeometry x="410" y="490" width="20" height="20" as="geometry" />
        </mxCell>
        <mxCell id="abryTrooZKwMuos93xIQ-512" value="" style="ellipse;whiteSpace=wrap;html=1;aspect=fixed;" vertex="1" parent="1">
          <mxGeometry x="370" y="490" width="20" height="20" as="geometry" />
        </mxCell>
        <mxCell id="abryTrooZKwMuos93xIQ-513" value="" style="ellipse;whiteSpace=wrap;html=1;aspect=fixed;" vertex="1" parent="1">
          <mxGeometry x="330" y="490" width="20" height="20" as="geometry" />
        </mxCell>
        <mxCell id="abryTrooZKwMuos93xIQ-514" value="" style="ellipse;whiteSpace=wrap;html=1;aspect=fixed;" vertex="1" parent="1">
          <mxGeometry x="290" y="490" width="20" height="20" as="geometry" />
        </mxCell>
        <mxCell id="abryTrooZKwMuos93xIQ-515" value="" style="ellipse;whiteSpace=wrap;html=1;aspect=fixed;" vertex="1" parent="1">
          <mxGeometry x="250" y="490" width="20" height="20" as="geometry" />
        </mxCell>
        <mxCell id="abryTrooZKwMuos93xIQ-516" value="" style="ellipse;whiteSpace=wrap;html=1;aspect=fixed;" vertex="1" parent="1">
          <mxGeometry x="250" y="490" width="20" height="20" as="geometry" />
        </mxCell>
        <mxCell id="abryTrooZKwMuos93xIQ-517" value="" style="ellipse;whiteSpace=wrap;html=1;aspect=fixed;" vertex="1" parent="1">
          <mxGeometry x="290" y="490" width="20" height="20" as="geometry" />
        </mxCell>
        <mxCell id="abryTrooZKwMuos93xIQ-518" value="" style="ellipse;whiteSpace=wrap;html=1;aspect=fixed;" vertex="1" parent="1">
          <mxGeometry x="370" y="490" width="20" height="20" as="geometry" />
        </mxCell>
        <mxCell id="abryTrooZKwMuos93xIQ-519" value="" style="ellipse;whiteSpace=wrap;html=1;aspect=fixed;" vertex="1" parent="1">
          <mxGeometry x="330" y="490" width="20" height="20" as="geometry" />
        </mxCell>
        <mxCell id="abryTrooZKwMuos93xIQ-520" value="" style="ellipse;whiteSpace=wrap;html=1;aspect=fixed;" vertex="1" parent="1">
          <mxGeometry x="250" y="490" width="20" height="20" as="geometry" />
        </mxCell>
        <mxCell id="abryTrooZKwMuos93xIQ-521" value="" style="ellipse;whiteSpace=wrap;html=1;aspect=fixed;" vertex="1" parent="1">
          <mxGeometry x="290" y="490" width="20" height="20" as="geometry" />
        </mxCell>
        <mxCell id="abryTrooZKwMuos93xIQ-522" value="" style="ellipse;whiteSpace=wrap;html=1;aspect=fixed;" vertex="1" parent="1">
          <mxGeometry x="370" y="490" width="20" height="20" as="geometry" />
        </mxCell>
        <mxCell id="abryTrooZKwMuos93xIQ-523" value="" style="ellipse;whiteSpace=wrap;html=1;aspect=fixed;" vertex="1" parent="1">
          <mxGeometry x="330" y="490" width="20" height="20" as="geometry" />
        </mxCell>
        <mxCell id="abryTrooZKwMuos93xIQ-524" value="" style="ellipse;whiteSpace=wrap;html=1;aspect=fixed;" vertex="1" parent="1">
          <mxGeometry x="410" y="490" width="20" height="20" as="geometry" />
        </mxCell>
        <mxCell id="abryTrooZKwMuos93xIQ-525" value="" style="ellipse;whiteSpace=wrap;html=1;aspect=fixed;" vertex="1" parent="1">
          <mxGeometry x="450" y="490" width="20" height="20" as="geometry" />
        </mxCell>
        <mxCell id="abryTrooZKwMuos93xIQ-526" value="" style="ellipse;whiteSpace=wrap;html=1;aspect=fixed;" vertex="1" parent="1">
          <mxGeometry x="490" y="490" width="20" height="20" as="geometry" />
        </mxCell>
        <mxCell id="abryTrooZKwMuos93xIQ-527" value="" style="ellipse;whiteSpace=wrap;html=1;aspect=fixed;" vertex="1" parent="1">
          <mxGeometry x="530" y="490" width="20" height="20" as="geometry" />
        </mxCell>
        <mxCell id="abryTrooZKwMuos93xIQ-528" value="" style="ellipse;whiteSpace=wrap;html=1;aspect=fixed;" vertex="1" parent="1">
          <mxGeometry x="610" y="530" width="20" height="20" as="geometry" />
        </mxCell>
        <mxCell id="abryTrooZKwMuos93xIQ-529" value="" style="ellipse;whiteSpace=wrap;html=1;aspect=fixed;" vertex="1" parent="1">
          <mxGeometry x="570" y="530" width="20" height="20" as="geometry" />
        </mxCell>
        <mxCell id="abryTrooZKwMuos93xIQ-530" value="" style="ellipse;whiteSpace=wrap;html=1;aspect=fixed;" vertex="1" parent="1">
          <mxGeometry x="250" y="530" width="20" height="20" as="geometry" />
        </mxCell>
        <mxCell id="abryTrooZKwMuos93xIQ-531" value="" style="ellipse;whiteSpace=wrap;html=1;aspect=fixed;" vertex="1" parent="1">
          <mxGeometry x="290" y="530" width="20" height="20" as="geometry" />
        </mxCell>
        <mxCell id="abryTrooZKwMuos93xIQ-532" value="" style="ellipse;whiteSpace=wrap;html=1;aspect=fixed;" vertex="1" parent="1">
          <mxGeometry x="370" y="530" width="20" height="20" as="geometry" />
        </mxCell>
        <mxCell id="abryTrooZKwMuos93xIQ-533" value="" style="ellipse;whiteSpace=wrap;html=1;aspect=fixed;" vertex="1" parent="1">
          <mxGeometry x="330" y="530" width="20" height="20" as="geometry" />
        </mxCell>
        <mxCell id="abryTrooZKwMuos93xIQ-534" value="" style="ellipse;whiteSpace=wrap;html=1;aspect=fixed;" vertex="1" parent="1">
          <mxGeometry x="410" y="530" width="20" height="20" as="geometry" />
        </mxCell>
        <mxCell id="abryTrooZKwMuos93xIQ-535" value="" style="ellipse;whiteSpace=wrap;html=1;aspect=fixed;" vertex="1" parent="1">
          <mxGeometry x="450" y="530" width="20" height="20" as="geometry" />
        </mxCell>
        <mxCell id="abryTrooZKwMuos93xIQ-536" value="" style="ellipse;whiteSpace=wrap;html=1;aspect=fixed;" vertex="1" parent="1">
          <mxGeometry x="490" y="530" width="20" height="20" as="geometry" />
        </mxCell>
        <mxCell id="abryTrooZKwMuos93xIQ-537" value="" style="ellipse;whiteSpace=wrap;html=1;aspect=fixed;" vertex="1" parent="1">
          <mxGeometry x="530" y="530" width="20" height="20" as="geometry" />
        </mxCell>
        <mxCell id="abryTrooZKwMuos93xIQ-538" value="" style="ellipse;whiteSpace=wrap;html=1;aspect=fixed;" vertex="1" parent="1">
          <mxGeometry x="610" y="570" width="20" height="20" as="geometry" />
        </mxCell>
        <mxCell id="abryTrooZKwMuos93xIQ-539" value="" style="ellipse;whiteSpace=wrap;html=1;aspect=fixed;" vertex="1" parent="1">
          <mxGeometry x="570" y="570" width="20" height="20" as="geometry" />
        </mxCell>
        <mxCell id="abryTrooZKwMuos93xIQ-540" value="" style="ellipse;whiteSpace=wrap;html=1;aspect=fixed;" vertex="1" parent="1">
          <mxGeometry x="250" y="570" width="20" height="20" as="geometry" />
        </mxCell>
        <mxCell id="abryTrooZKwMuos93xIQ-541" value="" style="ellipse;whiteSpace=wrap;html=1;aspect=fixed;" vertex="1" parent="1">
          <mxGeometry x="290" y="570" width="20" height="20" as="geometry" />
        </mxCell>
        <mxCell id="abryTrooZKwMuos93xIQ-542" value="" style="ellipse;whiteSpace=wrap;html=1;aspect=fixed;" vertex="1" parent="1">
          <mxGeometry x="370" y="570" width="20" height="20" as="geometry" />
        </mxCell>
        <mxCell id="abryTrooZKwMuos93xIQ-543" value="" style="ellipse;whiteSpace=wrap;html=1;aspect=fixed;" vertex="1" parent="1">
          <mxGeometry x="330" y="570" width="20" height="20" as="geometry" />
        </mxCell>
        <mxCell id="abryTrooZKwMuos93xIQ-544" value="" style="ellipse;whiteSpace=wrap;html=1;aspect=fixed;" vertex="1" parent="1">
          <mxGeometry x="410" y="570" width="20" height="20" as="geometry" />
        </mxCell>
        <mxCell id="abryTrooZKwMuos93xIQ-545" value="" style="ellipse;whiteSpace=wrap;html=1;aspect=fixed;" vertex="1" parent="1">
          <mxGeometry x="450" y="570" width="20" height="20" as="geometry" />
        </mxCell>
        <mxCell id="abryTrooZKwMuos93xIQ-546" value="" style="ellipse;whiteSpace=wrap;html=1;aspect=fixed;" vertex="1" parent="1">
          <mxGeometry x="490" y="570" width="20" height="20" as="geometry" />
        </mxCell>
        <mxCell id="abryTrooZKwMuos93xIQ-547" value="" style="ellipse;whiteSpace=wrap;html=1;aspect=fixed;" vertex="1" parent="1">
          <mxGeometry x="530" y="570" width="20" height="20" as="geometry" />
        </mxCell>
        <mxCell id="abryTrooZKwMuos93xIQ-548" value="" style="ellipse;whiteSpace=wrap;html=1;aspect=fixed;" vertex="1" parent="1">
          <mxGeometry x="610" y="610" width="20" height="20" as="geometry" />
        </mxCell>
        <mxCell id="abryTrooZKwMuos93xIQ-549" value="" style="ellipse;whiteSpace=wrap;html=1;aspect=fixed;" vertex="1" parent="1">
          <mxGeometry x="570" y="610" width="20" height="20" as="geometry" />
        </mxCell>
        <mxCell id="abryTrooZKwMuos93xIQ-550" value="" style="ellipse;whiteSpace=wrap;html=1;aspect=fixed;" vertex="1" parent="1">
          <mxGeometry x="250" y="610" width="20" height="20" as="geometry" />
        </mxCell>
        <mxCell id="abryTrooZKwMuos93xIQ-551" value="" style="ellipse;whiteSpace=wrap;html=1;aspect=fixed;" vertex="1" parent="1">
          <mxGeometry x="290" y="610" width="20" height="20" as="geometry" />
        </mxCell>
        <mxCell id="abryTrooZKwMuos93xIQ-552" value="" style="ellipse;whiteSpace=wrap;html=1;aspect=fixed;" vertex="1" parent="1">
          <mxGeometry x="370" y="610" width="20" height="20" as="geometry" />
        </mxCell>
        <mxCell id="abryTrooZKwMuos93xIQ-553" value="" style="ellipse;whiteSpace=wrap;html=1;aspect=fixed;" vertex="1" parent="1">
          <mxGeometry x="330" y="610" width="20" height="20" as="geometry" />
        </mxCell>
        <mxCell id="abryTrooZKwMuos93xIQ-554" value="" style="ellipse;whiteSpace=wrap;html=1;aspect=fixed;" vertex="1" parent="1">
          <mxGeometry x="410" y="610" width="20" height="20" as="geometry" />
        </mxCell>
        <mxCell id="abryTrooZKwMuos93xIQ-555" value="" style="ellipse;whiteSpace=wrap;html=1;aspect=fixed;" vertex="1" parent="1">
          <mxGeometry x="450" y="610" width="20" height="20" as="geometry" />
        </mxCell>
        <mxCell id="abryTrooZKwMuos93xIQ-556" value="" style="ellipse;whiteSpace=wrap;html=1;aspect=fixed;" vertex="1" parent="1">
          <mxGeometry x="490" y="610" width="20" height="20" as="geometry" />
        </mxCell>
        <mxCell id="abryTrooZKwMuos93xIQ-557" value="" style="ellipse;whiteSpace=wrap;html=1;aspect=fixed;" vertex="1" parent="1">
          <mxGeometry x="530" y="610" width="20" height="20" as="geometry" />
        </mxCell>
        <mxCell id="abryTrooZKwMuos93xIQ-558" value="" style="ellipse;whiteSpace=wrap;html=1;aspect=fixed;" vertex="1" parent="1">
          <mxGeometry x="610" y="650" width="20" height="20" as="geometry" />
        </mxCell>
        <mxCell id="abryTrooZKwMuos93xIQ-559" value="" style="ellipse;whiteSpace=wrap;html=1;aspect=fixed;" vertex="1" parent="1">
          <mxGeometry x="570" y="650" width="20" height="20" as="geometry" />
        </mxCell>
        <mxCell id="abryTrooZKwMuos93xIQ-560" value="" style="ellipse;whiteSpace=wrap;html=1;aspect=fixed;" vertex="1" parent="1">
          <mxGeometry x="250" y="650" width="20" height="20" as="geometry" />
        </mxCell>
        <mxCell id="abryTrooZKwMuos93xIQ-561" value="" style="ellipse;whiteSpace=wrap;html=1;aspect=fixed;" vertex="1" parent="1">
          <mxGeometry x="290" y="650" width="20" height="20" as="geometry" />
        </mxCell>
        <mxCell id="abryTrooZKwMuos93xIQ-562" value="" style="ellipse;whiteSpace=wrap;html=1;aspect=fixed;" vertex="1" parent="1">
          <mxGeometry x="370" y="650" width="20" height="20" as="geometry" />
        </mxCell>
        <mxCell id="abryTrooZKwMuos93xIQ-563" value="" style="ellipse;whiteSpace=wrap;html=1;aspect=fixed;" vertex="1" parent="1">
          <mxGeometry x="330" y="650" width="20" height="20" as="geometry" />
        </mxCell>
        <mxCell id="abryTrooZKwMuos93xIQ-564" value="" style="ellipse;whiteSpace=wrap;html=1;aspect=fixed;" vertex="1" parent="1">
          <mxGeometry x="410" y="650" width="20" height="20" as="geometry" />
        </mxCell>
        <mxCell id="abryTrooZKwMuos93xIQ-565" value="" style="ellipse;whiteSpace=wrap;html=1;aspect=fixed;" vertex="1" parent="1">
          <mxGeometry x="450" y="650" width="20" height="20" as="geometry" />
        </mxCell>
        <mxCell id="abryTrooZKwMuos93xIQ-566" value="" style="ellipse;whiteSpace=wrap;html=1;aspect=fixed;" vertex="1" parent="1">
          <mxGeometry x="490" y="650" width="20" height="20" as="geometry" />
        </mxCell>
        <mxCell id="abryTrooZKwMuos93xIQ-567" value="" style="ellipse;whiteSpace=wrap;html=1;aspect=fixed;" vertex="1" parent="1">
          <mxGeometry x="530" y="650" width="20" height="20" as="geometry" />
        </mxCell>
        <mxCell id="abryTrooZKwMuos93xIQ-568" value="" style="ellipse;whiteSpace=wrap;html=1;aspect=fixed;" vertex="1" parent="1">
          <mxGeometry x="610" y="690" width="20" height="20" as="geometry" />
        </mxCell>
        <mxCell id="abryTrooZKwMuos93xIQ-569" value="" style="ellipse;whiteSpace=wrap;html=1;aspect=fixed;" vertex="1" parent="1">
          <mxGeometry x="570" y="690" width="20" height="20" as="geometry" />
        </mxCell>
        <mxCell id="abryTrooZKwMuos93xIQ-570" value="" style="ellipse;whiteSpace=wrap;html=1;aspect=fixed;" vertex="1" parent="1">
          <mxGeometry x="250" y="690" width="20" height="20" as="geometry" />
        </mxCell>
        <mxCell id="abryTrooZKwMuos93xIQ-571" value="" style="ellipse;whiteSpace=wrap;html=1;aspect=fixed;" vertex="1" parent="1">
          <mxGeometry x="290" y="690" width="20" height="20" as="geometry" />
        </mxCell>
        <mxCell id="abryTrooZKwMuos93xIQ-572" value="" style="ellipse;whiteSpace=wrap;html=1;aspect=fixed;" vertex="1" parent="1">
          <mxGeometry x="370" y="690" width="20" height="20" as="geometry" />
        </mxCell>
        <mxCell id="abryTrooZKwMuos93xIQ-573" value="" style="ellipse;whiteSpace=wrap;html=1;aspect=fixed;" vertex="1" parent="1">
          <mxGeometry x="330" y="690" width="20" height="20" as="geometry" />
        </mxCell>
        <mxCell id="abryTrooZKwMuos93xIQ-574" value="" style="ellipse;whiteSpace=wrap;html=1;aspect=fixed;" vertex="1" parent="1">
          <mxGeometry x="410" y="690" width="20" height="20" as="geometry" />
        </mxCell>
        <mxCell id="abryTrooZKwMuos93xIQ-575" value="" style="ellipse;whiteSpace=wrap;html=1;aspect=fixed;" vertex="1" parent="1">
          <mxGeometry x="450" y="690" width="20" height="20" as="geometry" />
        </mxCell>
        <mxCell id="abryTrooZKwMuos93xIQ-576" value="" style="ellipse;whiteSpace=wrap;html=1;aspect=fixed;" vertex="1" parent="1">
          <mxGeometry x="490" y="690" width="20" height="20" as="geometry" />
        </mxCell>
        <mxCell id="abryTrooZKwMuos93xIQ-577" value="" style="ellipse;whiteSpace=wrap;html=1;aspect=fixed;" vertex="1" parent="1">
          <mxGeometry x="530" y="690" width="20" height="20" as="geometry" />
        </mxCell>
        <mxCell id="abryTrooZKwMuos93xIQ-578" value="" style="ellipse;whiteSpace=wrap;html=1;aspect=fixed;" vertex="1" parent="1">
          <mxGeometry x="610" y="730" width="20" height="20" as="geometry" />
        </mxCell>
        <mxCell id="abryTrooZKwMuos93xIQ-579" value="" style="ellipse;whiteSpace=wrap;html=1;aspect=fixed;" vertex="1" parent="1">
          <mxGeometry x="570" y="730" width="20" height="20" as="geometry" />
        </mxCell>
        <mxCell id="abryTrooZKwMuos93xIQ-580" value="" style="ellipse;whiteSpace=wrap;html=1;aspect=fixed;" vertex="1" parent="1">
          <mxGeometry x="250" y="730" width="20" height="20" as="geometry" />
        </mxCell>
        <mxCell id="abryTrooZKwMuos93xIQ-581" value="" style="ellipse;whiteSpace=wrap;html=1;aspect=fixed;" vertex="1" parent="1">
          <mxGeometry x="290" y="730" width="20" height="20" as="geometry" />
        </mxCell>
        <mxCell id="abryTrooZKwMuos93xIQ-582" value="" style="ellipse;whiteSpace=wrap;html=1;aspect=fixed;" vertex="1" parent="1">
          <mxGeometry x="370" y="730" width="20" height="20" as="geometry" />
        </mxCell>
        <mxCell id="abryTrooZKwMuos93xIQ-583" value="" style="ellipse;whiteSpace=wrap;html=1;aspect=fixed;" vertex="1" parent="1">
          <mxGeometry x="330" y="730" width="20" height="20" as="geometry" />
        </mxCell>
        <mxCell id="abryTrooZKwMuos93xIQ-584" value="" style="ellipse;whiteSpace=wrap;html=1;aspect=fixed;" vertex="1" parent="1">
          <mxGeometry x="410" y="730" width="20" height="20" as="geometry" />
        </mxCell>
        <mxCell id="abryTrooZKwMuos93xIQ-585" value="" style="ellipse;whiteSpace=wrap;html=1;aspect=fixed;" vertex="1" parent="1">
          <mxGeometry x="450" y="730" width="20" height="20" as="geometry" />
        </mxCell>
        <mxCell id="abryTrooZKwMuos93xIQ-586" value="" style="ellipse;whiteSpace=wrap;html=1;aspect=fixed;" vertex="1" parent="1">
          <mxGeometry x="490" y="730" width="20" height="20" as="geometry" />
        </mxCell>
        <mxCell id="abryTrooZKwMuos93xIQ-587" value="" style="ellipse;whiteSpace=wrap;html=1;aspect=fixed;" vertex="1" parent="1">
          <mxGeometry x="530" y="730" width="20" height="20" as="geometry" />
        </mxCell>
        <mxCell id="abryTrooZKwMuos93xIQ-588" value="" style="ellipse;whiteSpace=wrap;html=1;aspect=fixed;" vertex="1" parent="1">
          <mxGeometry x="610" y="770" width="20" height="20" as="geometry" />
        </mxCell>
        <mxCell id="abryTrooZKwMuos93xIQ-589" value="" style="ellipse;whiteSpace=wrap;html=1;aspect=fixed;" vertex="1" parent="1">
          <mxGeometry x="570" y="770" width="20" height="20" as="geometry" />
        </mxCell>
        <mxCell id="abryTrooZKwMuos93xIQ-590" value="" style="ellipse;whiteSpace=wrap;html=1;aspect=fixed;" vertex="1" parent="1">
          <mxGeometry x="250" y="770" width="20" height="20" as="geometry" />
        </mxCell>
        <mxCell id="abryTrooZKwMuos93xIQ-591" value="" style="ellipse;whiteSpace=wrap;html=1;aspect=fixed;" vertex="1" parent="1">
          <mxGeometry x="290" y="770" width="20" height="20" as="geometry" />
        </mxCell>
        <mxCell id="abryTrooZKwMuos93xIQ-592" value="" style="ellipse;whiteSpace=wrap;html=1;aspect=fixed;" vertex="1" parent="1">
          <mxGeometry x="370" y="770" width="20" height="20" as="geometry" />
        </mxCell>
        <mxCell id="abryTrooZKwMuos93xIQ-593" value="" style="ellipse;whiteSpace=wrap;html=1;aspect=fixed;" vertex="1" parent="1">
          <mxGeometry x="330" y="770" width="20" height="20" as="geometry" />
        </mxCell>
        <mxCell id="abryTrooZKwMuos93xIQ-594" value="" style="ellipse;whiteSpace=wrap;html=1;aspect=fixed;" vertex="1" parent="1">
          <mxGeometry x="410" y="770" width="20" height="20" as="geometry" />
        </mxCell>
        <mxCell id="abryTrooZKwMuos93xIQ-595" value="" style="ellipse;whiteSpace=wrap;html=1;aspect=fixed;" vertex="1" parent="1">
          <mxGeometry x="450" y="770" width="20" height="20" as="geometry" />
        </mxCell>
        <mxCell id="abryTrooZKwMuos93xIQ-596" value="" style="ellipse;whiteSpace=wrap;html=1;aspect=fixed;" vertex="1" parent="1">
          <mxGeometry x="490" y="770" width="20" height="20" as="geometry" />
        </mxCell>
        <mxCell id="abryTrooZKwMuos93xIQ-597" value="" style="ellipse;whiteSpace=wrap;html=1;aspect=fixed;" vertex="1" parent="1">
          <mxGeometry x="530" y="770" width="20" height="20" as="geometry" />
        </mxCell>
        <mxCell id="abryTrooZKwMuos93xIQ-598" value="" style="ellipse;whiteSpace=wrap;html=1;aspect=fixed;" vertex="1" parent="1">
          <mxGeometry x="610" y="810" width="20" height="20" as="geometry" />
        </mxCell>
        <mxCell id="abryTrooZKwMuos93xIQ-599" value="" style="ellipse;whiteSpace=wrap;html=1;aspect=fixed;" vertex="1" parent="1">
          <mxGeometry x="570" y="810" width="20" height="20" as="geometry" />
        </mxCell>
        <mxCell id="abryTrooZKwMuos93xIQ-600" value="" style="ellipse;whiteSpace=wrap;html=1;aspect=fixed;" vertex="1" parent="1">
          <mxGeometry x="250" y="810" width="20" height="20" as="geometry" />
        </mxCell>
        <mxCell id="abryTrooZKwMuos93xIQ-601" value="" style="ellipse;whiteSpace=wrap;html=1;aspect=fixed;" vertex="1" parent="1">
          <mxGeometry x="290" y="810" width="20" height="20" as="geometry" />
        </mxCell>
        <mxCell id="abryTrooZKwMuos93xIQ-602" value="" style="ellipse;whiteSpace=wrap;html=1;aspect=fixed;" vertex="1" parent="1">
          <mxGeometry x="370" y="810" width="20" height="20" as="geometry" />
        </mxCell>
        <mxCell id="abryTrooZKwMuos93xIQ-603" value="" style="ellipse;whiteSpace=wrap;html=1;aspect=fixed;" vertex="1" parent="1">
          <mxGeometry x="330" y="810" width="20" height="20" as="geometry" />
        </mxCell>
        <mxCell id="abryTrooZKwMuos93xIQ-604" value="" style="ellipse;whiteSpace=wrap;html=1;aspect=fixed;" vertex="1" parent="1">
          <mxGeometry x="410" y="810" width="20" height="20" as="geometry" />
        </mxCell>
        <mxCell id="abryTrooZKwMuos93xIQ-605" value="" style="ellipse;whiteSpace=wrap;html=1;aspect=fixed;" vertex="1" parent="1">
          <mxGeometry x="450" y="810" width="20" height="20" as="geometry" />
        </mxCell>
        <mxCell id="abryTrooZKwMuos93xIQ-606" value="" style="ellipse;whiteSpace=wrap;html=1;aspect=fixed;" vertex="1" parent="1">
          <mxGeometry x="490" y="810" width="20" height="20" as="geometry" />
        </mxCell>
        <mxCell id="abryTrooZKwMuos93xIQ-607" value="" style="ellipse;whiteSpace=wrap;html=1;aspect=fixed;" vertex="1" parent="1">
          <mxGeometry x="530" y="810" width="20" height="20" as="geometry" />
        </mxCell>
        <mxCell id="abryTrooZKwMuos93xIQ-608" value="" style="ellipse;whiteSpace=wrap;html=1;aspect=fixed;" vertex="1" parent="1">
          <mxGeometry x="610" y="850" width="20" height="20" as="geometry" />
        </mxCell>
        <mxCell id="abryTrooZKwMuos93xIQ-609" value="" style="ellipse;whiteSpace=wrap;html=1;aspect=fixed;" vertex="1" parent="1">
          <mxGeometry x="570" y="850" width="20" height="20" as="geometry" />
        </mxCell>
        <mxCell id="abryTrooZKwMuos93xIQ-610" value="" style="ellipse;whiteSpace=wrap;html=1;aspect=fixed;" vertex="1" parent="1">
          <mxGeometry x="250" y="850" width="20" height="20" as="geometry" />
        </mxCell>
        <mxCell id="abryTrooZKwMuos93xIQ-611" value="" style="ellipse;whiteSpace=wrap;html=1;aspect=fixed;" vertex="1" parent="1">
          <mxGeometry x="290" y="850" width="20" height="20" as="geometry" />
        </mxCell>
        <mxCell id="abryTrooZKwMuos93xIQ-612" value="" style="ellipse;whiteSpace=wrap;html=1;aspect=fixed;" vertex="1" parent="1">
          <mxGeometry x="370" y="850" width="20" height="20" as="geometry" />
        </mxCell>
        <mxCell id="abryTrooZKwMuos93xIQ-613" value="" style="ellipse;whiteSpace=wrap;html=1;aspect=fixed;" vertex="1" parent="1">
          <mxGeometry x="330" y="850" width="20" height="20" as="geometry" />
        </mxCell>
        <mxCell id="abryTrooZKwMuos93xIQ-614" value="" style="ellipse;whiteSpace=wrap;html=1;aspect=fixed;" vertex="1" parent="1">
          <mxGeometry x="410" y="850" width="20" height="20" as="geometry" />
        </mxCell>
        <mxCell id="abryTrooZKwMuos93xIQ-615" value="" style="ellipse;whiteSpace=wrap;html=1;aspect=fixed;" vertex="1" parent="1">
          <mxGeometry x="450" y="850" width="20" height="20" as="geometry" />
        </mxCell>
        <mxCell id="abryTrooZKwMuos93xIQ-616" value="" style="ellipse;whiteSpace=wrap;html=1;aspect=fixed;" vertex="1" parent="1">
          <mxGeometry x="490" y="850" width="20" height="20" as="geometry" />
        </mxCell>
        <mxCell id="abryTrooZKwMuos93xIQ-617" value="" style="ellipse;whiteSpace=wrap;html=1;aspect=fixed;" vertex="1" parent="1">
          <mxGeometry x="530" y="850" width="20" height="20" as="geometry" />
        </mxCell>
      </root>
    </mxGraphModel>
  </diagram>
</mxfile>
